<?xml version="1.0" encoding="UTF-8"?>
<svg width="16px" height="20px" viewBox="0 0 16 20" version="1.1" xmlns="http://www.w3.org/2000/svg" xmlns:xlink="http://www.w3.org/1999/xlink">
    <title>address</title>
    <g id="Page-1" stroke="none" stroke-width="1" fill="none" fill-rule="evenodd">
        <g id="Home--Main" transform="translate(-1072.000000, -3022.000000)" fill="#FFFFFF">
            <g id="Group-4" transform="translate(0.000000, 2891.000000)">
                <g id="Group-33" transform="translate(1072.000000, 66.000000)">
                    <g id="Group-32" transform="translate(0.000000, 56.000000)">
                        <g id="address" transform="translate(-0.000000, 8.999643)">
                            <path d="M2.3434163,2.34324723 C5.46774594,-0.781082409 10.5332851,-0.781082409 13.6576148,2.34324723 C16.7819444,5.46757686 16.7819444,10.5331161 13.6576148,13.6574457 L8.00051554,19.3145449 L2.3434163,13.6574457 C0.842960285,12.1571428 -6.57252031e-14,10.1222035 -6.57252031e-14,8.00034646 C-6.57252031e-14,5.87848947 0.842960285,3.84355014 2.3434163,2.34324723 Z M8.00051554,10.2860431 C9.26287095,10.2860431 10.2862122,9.26270187 10.2862122,8.00034646 C10.2862122,6.73799105 9.26287095,5.7146498 8.00051554,5.7146498 C6.73816013,5.7146498 5.71481888,6.73799105 5.71481888,8.00034646 C5.71481888,9.26270187 6.73816013,10.2860431 8.00051554,10.2860431 Z" id="Icon-Shape"></path>
                        </g>
                    </g>
                </g>
            </g>
        </g>
    </g>
</svg>