<?xml version="1.0" encoding="UTF-8"?>
<svg width="21px" height="21px" viewBox="0 0 21 21" version="1.1" xmlns="http://www.w3.org/2000/svg" xmlns:xlink="http://www.w3.org/1999/xlink">
    <title>delete</title>
    <g id="Dashboard" stroke="none" stroke-width="1" fill="none" fill-rule="evenodd">
        <g id="Request-Delivery-Step-4" transform="translate(-601.000000, -655.000000)">
            <g id="delete" transform="translate(601.000000, 655.000000)">
                <rect id="Rectangle" fill="#FF6868" x="0" y="0" width="21" height="21"></rect>
                <g id="jam-trash-f" transform="translate(4.000000, 4.000000)" fill-rule="nonzero">
                    <g id="Icon" transform="translate(1.200000, 0.000000)" fill="#FFFFFF">
                        <path d="M6,1.92 L8.4,1.92 C8.66509668,1.92 8.88,2.13490332 8.88,2.4 L8.88,3.36 C8.88,3.62509668 8.66509668,3.84 8.4,3.84 L0.72,3.84 C0.45490332,3.84 0.24,3.62509668 0.24,3.36 L0.24,2.4 C0.24,2.13490332 0.45490332,1.92 0.72,1.92 L3.12,1.92 L3.12,1.44 C3.12,1.17490332 3.33490332,0.96 3.6,0.96 L5.52,0.96 C5.78509668,0.96 6,1.17490332 6,1.44 L6,1.92 Z M7.824,4.8 L7.52976,9.216 C7.47922896,9.97227936 6.8510856,10.5599177 6.09312,10.56 L3.03648,10.56 C2.27920582,10.56 1.65133464,9.97344134 1.59984,9.21792 L1.2984,4.8 L7.824,4.8 Z M3.6,5.28 C3.33490332,5.28 3.12,5.49490332 3.12,5.76 L3.12,9.12 C3.12,9.38509668 3.33490332,9.6 3.6,9.6 C3.86509668,9.6 4.08,9.38509668 4.08,9.12 L4.08,5.76 C4.08,5.49490332 3.86509668,5.28 3.6,5.28 Z M5.52,5.28 C5.25490332,5.28 5.04,5.49490332 5.04,5.76 L5.04,9.12 C5.04,9.38509668 5.25490332,9.6 5.52,9.6 C5.78509668,9.6 6,9.38509668 6,9.12 L6,5.76 C6,5.49490332 5.78509668,5.28 5.52,5.28 Z" id="Icon-Shape"></path>
                    </g>
                    <rect id="ViewBox" x="0" y="0" width="11.52" height="11.52"></rect>
                </g>
            </g>
        </g>
    </g>
</svg>