<?xml version="1.0" encoding="UTF-8"?>
<svg width="43px" height="34px" viewBox="0 0 43 34" version="1.1" xmlns="http://www.w3.org/2000/svg" xmlns:xlink="http://www.w3.org/1999/xlink">
    <title>logoMark</title>
    <g id="Page-1" stroke="none" stroke-width="1" fill="none" fill-rule="evenodd">
        <g id="Home--Main" transform="translate(-151.000000, -37.000000)" fill="#6054F7" fill-rule="nonzero">
            <g id="Group-7" transform="translate(151.000000, 34.000000)">
                <g id="saascorn-logo-full-color-rgb" transform="translate(0.000000, 3.000000)">
                    <path d="M25.65045,0 C17.9995102,0.000514408058 11.2786262,5.0797545 9.18974,12.440015 C3.91301769,13.2497031 0.0128388594,17.7829532 -2.89281776e-05,23.12142 C-0.014,29.094765 5.05547,33.9811464 11.02885,33.9811464 L19.46784,33.9811464 C21.6901288,33.9924094 23.8571615,33.2887619 25.64884,31.974005 C25.813935,31.851505 25.95957,31.734395 26.076995,31.627015 C30.289665,27.77817 29.69687,22.422995 29.2845,20.4155 C29.181355,19.905725 29.086925,19.61078 29.086925,19.61078 C29.069705,19.47617 29.05252,19.341595 29.029665,19.206985 C29.029665,19.206985 27.738165,21.285985 25.42421,21.383425 C24.1657534,21.4508464 22.9037296,21.3971428 21.65555,21.223055 L21.515165,21.343315 L18.55126,23.92355 C18.1650688,24.1476146 17.6849609,24.1320629 17.31408,23.883475 L15.449805,22.637755 C15.1826162,22.4627496 14.9996823,22.1850533 14.944359,21.8704804 C14.8890356,21.5559076 14.9662474,21.2324599 15.157695,20.976795 L18.88341,15.899415 L20.56733,13.60555 L20.951,13.0585 L19.74539,11.864335 L19.74539,11.8615 L18.92639,11.045335 L18.053,10.174815 L17.23106,9.355815 L15.39832,7.528815 L17.738,8.674225 L18.791815,9.184 L19.9115,9.728075 L20.95674,10.240685 L22.42016,10.953775 L22.92703,10.114685 L22.92703,7.202265 C22.92703,7.202265 23.187605,7.15358 23.648695,7.107765 C25.971155,6.89584 33.620195,6.798505 38.248,14.98301 C39.7164305,17.6650861 40.7990818,20.5409389 41.46394,23.52553 C41.8973551,22.4991724 42.2282897,21.4324982 42.45192,20.341055 C42.466235,20.26661 42.480585,20.19213 42.494935,20.11485 C42.6699269,19.1220991 42.758345,18.1159858 42.758345,17.10793 C42.758345,12.5705825 40.9561208,8.21902722 37.747735,5.01063478 C34.5393491,1.80224234 30.1877975,0 25.65045,0 Z" id="logoMark"></path>
                </g>
            </g>
        </g>
    </g>
</svg>