<?xml version="1.0" encoding="UTF-8"?>
<svg width="9px" height="18px" viewBox="0 0 9 18" version="1.1" xmlns="http://www.w3.org/2000/svg" xmlns:xlink="http://www.w3.org/1999/xlink">
    <title>fb</title>
    <g id="Page-1" stroke="none" stroke-width="1" fill="none" fill-rule="evenodd">
        <g id="Home--Main" transform="translate(-148.000000, -3134.000000)" fill="#FFFFFF">
            <g id="Group-4" transform="translate(0.000000, 2891.000000)">
                <g id="Group-31" transform="translate(148.000000, 243.000000)">
                    <g id="fb" transform="translate(0.000000, 0.000000)">
                        <path d="M5.45994464,5.68904976 L5.45994464,4.19304038 C5.45994464,3.96846 5.4704228,3.79450799 5.49171592,3.67162718 C5.5129342,3.54856185 5.56120858,3.42752609 5.63612742,3.30804018 C5.710934,3.18862807 5.83206901,3.10619091 5.99934535,3.06050729 C6.16684622,3.01474987 6.38943228,2.99194496 6.66732805,2.99194496 L8.18437851,2.99194496 L8.18437851,2.16715534e-13 L5.75909611,2.16715534e-13 C4.35577111,2.16715534e-13 3.34788439,0.3283095 2.73528625,0.984928501 C2.12276295,1.64169511 1.81653872,2.60909556 1.81653872,3.88749888 L1.81653872,5.68901285 L6.66133815e-14,5.68901285 L6.66133815e-14,8.68117922 L1.81642646,8.68117922 L1.81642646,17.3623953 L5.45990722,17.3623953 L5.45990722,8.68121612 L7.88503993,8.68121612 L8.20559678,5.68904976 L5.45994464,5.68904976 Z" id="Path"></path>
                    </g>
                </g>
            </g>
        </g>
    </g>
</svg>