<?xml version="1.0" encoding="UTF-8"?>
<svg width="19px" height="18px" viewBox="0 0 19 18" version="1.1" xmlns="http://www.w3.org/2000/svg" xmlns:xlink="http://www.w3.org/1999/xlink">
    <title>link</title>
    <g id="Page-1" stroke="none" stroke-width="1" fill="none" fill-rule="evenodd">
        <g id="Home--Main" transform="translate(-226.000000, -3135.000000)" fill="#FFFFFF" fill-rule="nonzero">
            <g id="Group-4" transform="translate(0.000000, 2891.000000)">
                <g id="Group-31" transform="translate(148.000000, 243.000000)">
                    <g id="link" transform="translate(78.800797, 1.293113)">
                        <path d="M17.3501422,10.0722865 L17.3501422,16.4263853 L13.629966,16.4263853 L13.629966,10.4948937 C13.629966,9.0035992 13.0935672,7.9900611 11.7474721,7.9900611 C10.7180348,7.9900611 10.1107716,8.67626292 9.83968755,9.33665173 C9.74208133,9.57446936 9.71243661,9.90752189 9.71243661,10.2362962 L9.71243661,16.4256303 L5.99592524,16.4256303 C5.99592524,16.4256303 6.0458169,6.38343496 5.99592524,5.34340077 L9.71319859,5.34340077 L9.71319859,6.9141835 C9.708155,6.92709001 9.69730583,6.93780348 9.69222595,6.95214804 L9.71319859,6.95214804 L9.71319859,6.9141835 C10.2098292,6.15924286 11.0896278,5.08336526 13.0653739,5.08336526 C15.5175399,5.08336526 17.3501422,6.66709045 17.3501422,10.0722865 Z M2.10441206,-5.32907052e-14 C0.832809726,-5.32907052e-14 -1.93622895e-13,0.826591517 -1.93622895e-13,1.91677772 C-1.93622895e-13,2.97759174 0.808244887,3.83211739 2.05669749,3.83211739 L2.07912153,3.83211739 C3.37891719,3.83211739 4.18425929,2.97759174 4.18425929,1.91677772 C4.15896875,0.826591517 3.37895347,-5.32907052e-14 2.10441206,-5.32907052e-14 Z M0.221954387,16.4263493 L3.93995344,16.4263493 L3.93995344,5.3427177 L0.221954387,5.3427177 L0.221954387,16.4263493 Z" id="LinkedIn_3_"></path>
                    </g>
                </g>
            </g>
        </g>
    </g>
</svg>