<?xml version="1.0" encoding="UTF-8"?>
<svg width="17px" height="13px" viewBox="0 0 17 13" version="1.1" xmlns="http://www.w3.org/2000/svg" xmlns:xlink="http://www.w3.org/1999/xlink">
    <title>mail</title>
    <g id="Page-1" stroke="none" stroke-width="1" fill="none" fill-rule="evenodd">
        <g id="Home--Main" transform="translate(-1074.000000, -3133.000000)" fill="#FFFFFF" fill-rule="nonzero">
            <g id="Group-4" transform="translate(0.000000, 2891.000000)">
                <g id="Group-33" transform="translate(1072.000000, 66.000000)">
                    <g id="mail" transform="translate(2.000505, 176.000000)">
                        <path d="M14.875,0 L2.125,0 C0.95191508,0.0012213086 0.00125486104,0.926462805 0,2.06818182 L0,10.9318182 C0.00125486104,12.0735372 0.95191508,12.9987787 2.125,13 L14.875,13 C16.0480849,12.9987787 16.9987451,12.0735372 17,10.9318182 L17,2.06818182 C16.9987451,0.926462805 16.0480849,0.0012213086 14.875,0 Z M14.3369196,3.42099432 L8.87263393,7.55735795 C8.65343335,7.7232061 8.34656665,7.7232061 8.12736607,7.55735795 L2.66308036,3.42099432 C2.48835726,3.29257567 2.39821001,3.08254565 2.42715504,2.87132255 C2.45610006,2.66009944 2.59965333,2.48040496 2.80284981,2.40104224 C3.00604629,2.32167951 3.23740771,2.35494305 3.40834821,2.48809659 L8.5,6.34230114 L13.5916518,2.48809659 C13.8565792,2.29337926 14.2330761,2.34186544 14.4368513,2.59694342 C14.6406265,2.85202139 14.5961116,3.21909761 14.3369196,3.42099432 Z" id="Icon-Shape"></path>
                    </g>
                </g>
            </g>
        </g>
    </g>
</svg>