<?xml version="1.0" encoding="UTF-8"?>
<svg width="18px" height="18px" viewBox="0 0 18 18" version="1.1" xmlns="http://www.w3.org/2000/svg" xmlns:xlink="http://www.w3.org/1999/xlink">
    <title>phone</title>
    <g id="Page-1" stroke="none" stroke-width="1" fill="none" fill-rule="evenodd">
        <g id="Home--Main" transform="translate(-1073.000000, -3086.000000)" fill="#FFFFFF" fill-rule="nonzero">
            <g id="Group-4" transform="translate(0.000000, 2891.000000)">
                <g id="Group-33" transform="translate(1072.000000, 66.000000)">
                    <g id="Group-28" transform="translate(1.000505, 124.000000)">
                        <g id="phone" transform="translate(-0.000000, 5.582400)">
                            <path d="M7.07793299,9.73760029 C8.12167557,10.7964218 9.38457553,11.6138936 10.777933,12.1326003 L12.662933,10.6326003 C12.7773473,10.5538104 12.9285187,10.5538104 13.042933,10.6326003 L16.542933,12.8876003 C16.8123231,13.0495625 16.9898837,13.3287629 17.0223285,13.641413 C17.0547733,13.9540631 16.9383261,14.2637738 16.707933,14.4776003 L15.067933,16.0976003 C14.5908923,16.5689518 13.9093663,16.7698424 13.252933,16.6326003 C10.0290383,15.9667596 7.05750106,14.4073523 4.67793299,12.1326003 C2.35117472,9.83522434 0.741069915,6.91202437 0.0429329937,3.71760029 C-0.0973421506,3.07043784 0.111309587,2.39706178 0.592932994,1.94260029 L2.29293299,0.302600292 C2.50605969,0.0835845873 2.80763376,-0.0259551328 3.11163817,0.00522480652 C3.41564258,0.0364047458 3.68870217,0.204881251 3.85293299,0.462600292 L6.18293299,3.91760029 C6.26544225,4.02898474 6.26544225,4.18121585 6.18293299,4.29260029 L4.64793299,6.13760029 C5.18072348,7.50307016 6.01079929,8.7328121 7.07793299,9.73760029 L7.07793299,9.73760029 Z" id="Icon-Path"></path>
                        </g>
                    </g>
                </g>
            </g>
        </g>
    </g>
</svg>