<?xml version="1.0" encoding="UTF-8"?>
<svg width="24px" height="24px" viewBox="0 0 24 24" version="1.1" xmlns="http://www.w3.org/2000/svg" xmlns:xlink="http://www.w3.org/1999/xlink">
    <title>Group 15</title>
    <g id="Page-1" stroke="none" stroke-width="1" fill="none" fill-rule="evenodd">
        <g id="Manage-Investment" transform="translate(-1233.000000, -125.000000)" fill-rule="nonzero">
            <g id="Group-6" transform="translate(1169.000000, 125.000000)">
                <g id="Group-15" transform="translate(64.000000, 0.000000)">
                    <circle id="Oval-Copy" fill="#1E1428" cx="12" cy="12" r="12"></circle>
                    <g id="linkedin-icon" transform="translate(6.600000, 6.600000)" fill="#FFFFFF">
                        <path d="M0.197307692,3.78532819 L2.55623077,3.78532819 L2.55623077,11.4 L0.197307692,11.4 L0.197307692,3.78532819 Z M1.38115385,0 C2.13530769,0 2.74915385,0.616216216 2.74915385,1.37328185 C2.74915385,2.13034749 2.13530769,2.74656371 1.38115385,2.74656371 C0.622615385,2.74656371 0.0131538462,2.13034749 0.0131538462,1.37328185 C0.0131538462,0.616216216 0.622615385,0 1.38115385,0 L1.38115385,0 Z" id="XMLID_195_"></path>
                        <path d="M4.03823077,3.78532819 L6.29630769,3.78532819 L6.29630769,4.82849421 L6.327,4.82849421 C6.64269231,4.22988417 7.41,3.60046332 8.55876923,3.60046332 C10.944,3.60046332 11.3868462,5.17621622 11.3868462,7.22733591 L11.3868462,11.4 L9.03230769,11.4 L9.03230769,7.69830116 C9.03230769,6.81359073 9.01915385,5.67799228 7.809,5.67799228 C6.58130769,5.67799228 6.39715385,6.6419305 6.39715385,7.63227799 L6.39715385,11.4 L4.04261538,11.4 L4.04261538,3.78532819 L4.03823077,3.78532819 Z" id="XMLID_192_"></path>
                    </g>
                </g>
            </g>
        </g>
    </g>
</svg>