<?xml version="1.0" encoding="UTF-8"?>
<svg width="24px" height="24px" viewBox="0 0 24 24" version="1.1" xmlns="http://www.w3.org/2000/svg" xmlns:xlink="http://www.w3.org/1999/xlink">
    <title>Group 14</title>
    <g id="Page-1" stroke="none" stroke-width="1" fill="none" fill-rule="evenodd">
        <g id="Manage-Investment" transform="translate(-1201.000000, -125.000000)" fill-rule="nonzero">
            <g id="Group-6" transform="translate(1169.000000, 125.000000)">
                <g id="Group-14" transform="translate(32.000000, 0.000000)">
                    <circle id="Oval-Copy" fill="#1E1428" cx="12" cy="12" r="12"></circle>
                    <g id="twitter-icon" transform="translate(6.000000, 7.200000)" fill="#FFFFFF">
                        <path d="M12,1.13639407 C11.5588576,1.32942998 11.0840996,1.45963931 10.585957,1.51790978 C11.094574,1.21816456 11.4845624,0.74336814 11.6684733,0.176969576 C11.192741,0.454893341 10.6660983,0.656561922 10.1051093,0.765429384 C9.656172,0.294469701 9.01625964,0 8.30814204,0 C6.9486633,0 5.84641618,1.08507769 5.84641618,2.42361992 C5.84641618,2.6132987 5.86809573,2.79818155 5.91023689,2.97587051 C3.86407649,2.87467652 2.04981426,1.90997652 0.835515498,0.44362292 C0.623591742,0.801398814 0.502283661,1.21768497 0.502283661,1.66226707 C0.502283661,2.50299245 0.936849156,3.24492182 1.59746666,3.67943248 C1.19408075,3.66672329 0.81432312,3.55761602 0.482309238,3.37609033 C0.482065648,3.38616176 0.482065648,3.396473 0.482065648,3.40678423 C0.482065648,4.5808263 1.33073503,5.56015387 2.45709762,5.78316431 C2.25053285,5.83831743 2.03300651,5.86805216 1.80841605,5.86805216 C1.64959503,5.86805216 1.49540223,5.852945 1.34510687,5.82440925 C1.65860788,6.78719088 2.56768772,7.48811508 3.64484501,7.50753858 C2.80226539,8.15762604 1.74094148,8.54513664 0.587296754,8.54513664 C0.388770477,8.54513664 0.192680105,8.53362642 0,8.51108556 C1.089824,9.1990608 2.38377687,9.6 3.77394799,9.6 C8.30253942,9.6 10.7786371,5.90713893 10.7786371,2.70442124 C10.7786371,2.59939052 10.7764448,2.49459959 10.7718166,2.39052805 C11.2526643,2.04953789 11.6701784,1.62246091 12,1.13639407 Z" id="Shape"></path>
                    </g>
                </g>
            </g>
        </g>
    </g>
</svg>