<?xml version="1.0" encoding="UTF-8"?>
<svg width="24px" height="24px" viewBox="0 0 24 24" version="1.1" xmlns="http://www.w3.org/2000/svg" xmlns:xlink="http://www.w3.org/1999/xlink">
    <title>Group 3 Copy</title>
    <g id="Page-1" stroke="none" stroke-width="1" fill="none" fill-rule="evenodd">
        <g id="Manage-Investment" transform="translate(-1265.000000, -125.000000)" fill-rule="nonzero">
            <g id="Group-6" transform="translate(1169.000000, 125.000000)">
                <g id="Group-3-Copy" transform="translate(96.000000, 0.000000)">
                    <circle id="Oval-Copy-2" fill="#1E1428" cx="12" cy="12" r="12"></circle>
                    <g id="instagram-icon" transform="translate(6.600000, 6.600000)" fill="#FFFFFF">
                        <path d="M7.5,0 L3.3,0 C1.47746033,0 0,1.47746033 0,3.3 L0,7.5 C0,9.32253967 1.47746033,10.8 3.3,10.8 L7.5,10.8 C8.37521442,10.8 9.21458233,10.4523224 9.83345238,9.83345238 C10.4523224,9.21458233 10.8,8.37521442 10.8,7.5 L10.8,3.3 C10.8,1.47746033 9.32253967,0 7.5,0 Z M9.9,7.5 C9.89849884,8.8248611 8.8248611,9.89849884 7.5,9.9 L3.3,9.9 C1.9751389,9.89849884 0.901501163,8.8248611 0.9,7.5 L0.9,3.3 C0.901487965,1.97513343 1.97513343,0.901487965 3.3,0.9 L7.5,0.9 C8.82486657,0.901487965 9.89851203,1.97513343 9.9,3.3 L9.9,7.5 Z" id="Shape"></path>
                        <path d="M5.4,2.7 C3.90883118,2.7 2.7,3.90883118 2.7,5.4 C2.7,6.89116882 3.90883118,8.1 5.4,8.1 C6.89116882,8.1 8.1,6.89116882 8.1,5.4 C8.1,3.90883118 6.89116882,2.7 5.4,2.7 Z M5.4,7.2 C4.40588745,7.2 3.6,6.39411255 3.6,5.4 C3.6,4.40588745 4.40588745,3.6 5.4,3.6 C6.39411255,3.6 7.2,4.40588745 7.2,5.4 C7.19887578,6.39364651 6.39364651,7.19887578 5.4,7.2 Z" id="Shape"></path>
                        <circle id="Oval" cx="8.220006" cy="2.579994" r="1"></circle>
                    </g>
                </g>
            </g>
        </g>
    </g>
</svg>