<?xml version="1.0" encoding="UTF-8"?>
<svg width="20px" height="17px" viewBox="0 0 20 17" version="1.1" xmlns="http://www.w3.org/2000/svg" xmlns:xlink="http://www.w3.org/1999/xlink">
    <title>tw</title>
    <g id="Page-1" stroke="none" stroke-width="1" fill="none" fill-rule="evenodd">
        <g id="Home--Main" transform="translate(-182.000000, -3136.000000)" fill="#FFFFFF">
            <g id="Group-4" transform="translate(0.000000, 2891.000000)">
                <g id="Group-31" transform="translate(148.000000, 243.000000)">
                    <g id="tw" transform="translate(34.355597, 2.541000)">
                        <path d="M18.2952,1.84098968 C17.6148473,2.15320431 16.8899,2.36015117 16.1340795,2.46063403 C16.9116255,1.97496684 17.5050761,1.21177554 17.7840779,0.291878806 C17.0591306,0.744051711 16.2587156,1.06344368 15.4057019,1.24168115 C14.717345,0.474901172 13.7362649,-1.60760294e-13 12.6659957,-1.60760294e-13 C10.5894905,-1.60760294e-13 8.91776655,1.76323508 8.91776655,3.92481296 C8.91776655,4.23583136 8.94292245,4.53488752 9.00466875,4.81958898 C5.8864806,4.6604911 3.12733575,3.09702553 1.2738033,0.71534232 C0.95020695,1.30268861 0.76039425,1.97496684 0.76039425,2.69868273 C0.76039425,4.0575939 1.4293125,5.26219208 2.4264009,5.95959103 C1.82380275,5.94762879 1.2326391,5.76460642 0.731808,5.47631629 C0.731808,5.48827854 0.731808,5.50382946 0.731808,5.51938038 C0.731808,7.42616241 2.03191065,9.0099638 3.7367946,9.37481231 C3.43149345,9.46213671 3.0987495,9.50400457 2.7534276,9.50400457 C2.5133031,9.50400457 2.2708917,9.48964987 2.04334515,9.43701599 C2.5293114,10.9909118 3.9083121,12.1333063 5.5480194,12.1703892 C4.2719292,13.2146933 2.65166055,13.8439075 0.89760825,13.8439075 C0.5900202,13.8439075 0.2950101,13.8295528 1.0658141e-14,13.7900774 C1.66143285,14.9109398 3.63045375,15.55092 5.7538404,15.55092 C12.6557046,15.55092 16.4290896,9.56979692 16.4290896,4.38535944 C16.4290896,4.21190687 16.4233724,4.04443542 16.4153682,3.8781602 C17.1597542,3.32550443 17.7852213,2.63528283 18.2952,1.84098968 Z" id="Path"></path>
                    </g>
                </g>
            </g>
        </g>
    </g>
</svg>