<?xml version="1.0" encoding="UTF-8"?>
<svg width="20px" height="14px" viewBox="0 0 20 14" version="1.1" xmlns="http://www.w3.org/2000/svg" xmlns:xlink="http://www.w3.org/1999/xlink">
    <title>youtube</title>
    <g id="Page-1" stroke="none" stroke-width="1" fill="none" fill-rule="evenodd">
        <g id="Home--Main" transform="translate(-270.000000, -3137.000000)">
            <g id="Group-4" transform="translate(0.000000, 2891.000000)">
                <g id="Group-31" transform="translate(148.000000, 243.000000)">
                    <g id="youtube" transform="translate(122.300939, 3.811500)">
                        <path d="M17.517654,1.2340944 C17.0213967,0.33530112 16.4828317,0.16997904 15.3862632,0.10711008 C14.2908381,0.03143448 11.536267,-4.73940887e-14 9.1498869,-4.73940887e-14 C6.75893295,-4.73940887e-14 4.00321845,0.03143448 2.9089368,0.10594584 C1.81465515,0.16997904 1.27494675,0.33413688 0.77411565,1.2340944 C0.2629935,2.13172344 -1.46695989e-14,3.67783416 -1.46695989e-14,6.39982728 C-1.46695989e-14,6.40215576 -1.46695989e-14,6.40332 -1.46695989e-14,6.40332 C-1.46695989e-14,6.40564848 -1.46695989e-14,6.40681272 -1.46695989e-14,6.40681272 L-1.46695989e-14,6.4091412 C-1.46695989e-14,9.11949192 0.2629935,10.677245 0.77411565,11.5655602 C1.27494675,12.4643534 1.8135117,12.627347 2.90779335,12.7030226 C4.00321845,12.7682201 6.75893295,12.80664 9.1498869,12.80664 C11.536267,12.80664 14.2908381,12.7682201 15.3874066,12.7041869 C16.4839752,12.6285113 17.0225401,12.4655177 17.5187974,11.5667244 C18.0344934,10.6784093 18.2952,9.12065616 18.2952,6.41030544 C18.2952,6.41030544 18.2952,6.40681272 18.2952,6.40448424 C18.2952,6.40448424 18.2952,6.40215576 18.2952,6.40099152 C18.2952,3.67783416 18.0344934,2.13172344 17.517654,1.2340944 Z" id="Path" fill="#FFFFFF"></path>
                        <polygon id="Path" fill="#6054F7" points="6.8607 9.89604 6.8607 2.9106 12.57795 6.40332"></polygon>
                    </g>
                </g>
            </g>
        </g>
    </g>
</svg>